[img]http://img825.imageshack.us/img825/2438/friendse.jpg[/img]
[code]

Imdb: 
http://www.imdb.com/title/tt1720616/

Plot:
N/A

Sources:
P2P

Notes:
Encoded Video and added few filters to video :)
so enjoy!! until line  audio comes out :P
Encoded by 26K

Greetz:
To all the people who have helped me :P you know hwo you are

Video
ID                                       : 0
Format                                   : MPEG-4 Visual
Format profile                           : Advanced Simple@L5
Format settings, BVOP                    : 2
Format settings, QPel                    : No
Format settings, GMC                     : No warppoints
Format settings, Matrix                  : Default (H.263)
Codec ID                                 : XVID
Codec ID/Hint                            : XviD
Duration                                 : 1h 44mn
Bit rate                                 : 1 900 Kbps
Width                                    : 720 pixels
Height                                   : 400 pixels
Display aspect ratio                     : 16:9
Frame rate                               : 23.976 fps
Color space                              : YUV
Chroma subsampling                       : 4:2:0
Bit depth                                : 8 bits
Scan type                                : Progressive
Compression mode                         : Lossy
Bits/(Pixel*Frame)                       : 0.275
Stream size                              : 1.38 GiB (89%)
Writing library                          : XviD 63

Audio
ID                                       : 1
Format                                   : AC-3
Format/Info                              : Audio Coding 3
Mode extension                           : CM (complete main)
Codec ID                                 : 2000
Duration                                 : 1h 44mn
Bit rate mode                            : Constant
Bit rate                                 : 224 Kbps
Channel(s)                               : 2 channels
Channel positions                        : Front: L R
Sampling rate                            : 48.0 KHz
Bit depth                                : 16 bits
Compression mode                         : Lossy
Stream size                              : 167 MiB (10%)
Alignment                                : Aligned on interleaves
Interleave, duration                     : 32 ms (0.77 video frame)

[/code]
Screens:
[img]http://img821.imageshack.us/img821/4748/vlcsnap2011120514h21m27.png[/img]
[img]http://img64.imageshack.us/img64/6717/vlcsnap2011120514h21m30.png[/img]
[img]http://img545.imageshack.us/img545/346/vlcsnap2011120514h21m41.png[/img]